<svg xmlns="http://www.w3.org/2000/svg" width="560" height="560" viewBox="0 0 560 560">
  <defs>
    <linearGradient id="g" x1="0" x2="1" y1="0" y2="1">
      <stop offset="0" stop-color="#0B5FA5" stop-opacity="0.08"/>
      <stop offset="1" stop-color="#1AA37A" stop-opacity="0.08"/>
    </linearGradient>
  </defs>
  <rect width="560" height="560" fill="none"/>
  <!-- simple, original, abstract leaf motifs -->
  <g fill="none" stroke="url(#g)" stroke-width="2">
    <path d="M70 120c40-55 95-55 135 0-40 55-95 55-135 0Z"/>
    <path d="M90 120c25-25 55-25 80 0"/>

    <path d="M290 70c55-40 110-15 125 60-70 20-120-5-125-60Z"/>
    <path d="M305 85c30 10 55 35 70 60"/>

    <path d="M430 240c40-55 95-55 135 0-40 55-95 55-135 0Z"/>
    <path d="M450 240c25-25 55-25 80 0"/>

    <path d="M140 320c55-40 110-15 125 60-70 20-120-5-125-60Z"/>
    <path d="M155 335c30 10 55 35 70 60"/>

    <path d="M340 420c40-55 95-55 135 0-40 55-95 55-135 0Z"/>
    <path d="M360 420c25-25 55-25 80 0"/>

    <path d="M40 460c40-55 95-55 135 0-40 55-95 55-135 0Z"/>
    <path d="M60 460c25-25 55-25 80 0"/>
  </g>
</svg>
